<?xml version="1.0" standalone="no"?>
<!DOCTYPE svg PUBLIC "-//W3C//DTD SVG 20010904//EN"
 "http://www.w3.org/TR/2001/REC-SVG-20010904/DTD/svg10.dtd">
<svg version="1.0" xmlns="http://www.w3.org/2000/svg"
 width="480.000000pt" height="480.000000pt" viewBox="0 0 480.000000 480.000000"
 preserveAspectRatio="xMidYMid meet">
<metadata>
Created by potrace 1.14, written by Peter Selinger 2001-2017
</metadata>
<g transform="translate(0.000000,480.000000) scale(0.100000,-0.100000)"
fill="#000000" stroke="none">
<path d="M1084 4393 c3 -10 14 -58 25 -106 76 -325 230 -480 491 -493 79 -4
210 -31 210 -43 0 -4 -10 -16 -22 -27 -13 -11 -45 -44 -72 -73 l-48 -52 -57 5
c-96 10 -213 38 -236 56 -5 4 -21 11 -35 15 -14 4 -65 32 -114 61 -49 30 -93
54 -98 54 -4 0 -8 3 -8 8 0 4 -9 12 -19 17 -11 6 -51 29 -89 51 -99 59 -166
82 -279 93 -106 11 -144 25 -188 69 -43 42 -104 138 -163 255 -7 15 -15 27
-17 27 -6 0 37 -180 67 -275 60 -194 139 -309 250 -364 34 -17 69 -31 77 -31
32 0 135 -31 181 -54 25 -13 90 -56 144 -96 54 -40 128 -87 164 -105 74 -37
186 -69 205 -59 22 11 -87 -86 -153 -137 -114 -88 -265 -150 -420 -173 -25 -4
-97 -9 -160 -12 -63 -3 -116 -6 -118 -8 -7 -8 94 -145 145 -198 52 -52 166
-129 201 -134 98 -15 -155 -122 -323 -138 -27 -2 -71 -5 -98 -5 -46 -1 -47 -2
-41 -28 14 -63 64 -153 111 -200 46 -47 163 -113 197 -113 39 0 18 -20 -52
-48 -139 -57 -236 -79 -397 -88 -55 -3 -101 -7 -102 -8 -3 -3 42 -90 61 -117
75 -108 250 -223 353 -231 13 -2 23 -5 23 -9 0 -17 -182 -81 -266 -95 -21 -3
-42 -8 -46 -10 -3 -2 -59 -7 -125 -10 -65 -4 -119 -8 -121 -9 -2 -2 1 -11 6
-22 5 -10 17 -36 28 -58 67 -144 170 -243 284 -273 l35 -10 -75 -34 c-113 -53
-218 -75 -357 -77 l-43 -1 25 -66 c59 -156 135 -250 250 -309 44 -23 81 -49
85 -60 4 -11 5 -107 3 -212 l-3 -193 780 0 780 0 0 180 0 180 60 0 60 0 0 180
0 180 60 0 60 0 0 180 0 180 120 0 120 0 0 240 0 240 60 0 60 0 0 -300 0 -300
23 0 c26 0 114 41 142 67 81 73 142 169 258 403 84 172 124 234 156 243 21 5
21 4 21 -235 l0 -239 28 4 c111 18 189 112 297 357 106 240 157 319 222 346
18 8 37 14 43 14 6 0 10 -63 10 -180 l0 -180 51 25 c52 27 145 112 191 175 34
48 83 153 103 223 l17 58 -39 35 c-50 46 -167 125 -223 151 -78 36 -132 47
-235 48 l-100 1 -30 57 c-16 31 -33 57 -36 57 -3 0 -18 -27 -34 -61 -16 -33
-37 -65 -46 -70 -17 -9 -54 -15 -144 -25 l-50 -6 -40 81 c-21 45 -42 81 -45
81 -3 0 -26 -41 -50 -91 -25 -50 -49 -94 -55 -99 -6 -5 -40 -11 -77 -15 l-67
-6 -53 105 c-29 58 -55 106 -58 106 -3 0 -31 -52 -63 -115 l-57 -115 -60 0
-60 0 -57 115 c-32 63 -60 115 -63 115 -3 0 -23 -35 -44 -77 -21 -43 -44 -88
-52 -101 l-15 -22 -49 25 c-132 67 -176 201 -110 337 20 44 101 138 118 138 4
0 39 -63 77 -140 38 -77 72 -140 75 -140 3 0 44 77 90 170 46 94 87 170 90
170 3 0 44 -76 90 -170 46 -93 87 -170 90 -170 3 0 44 77 90 170 46 94 87 170
90 170 3 0 44 -76 90 -170 46 -93 87 -170 90 -170 3 0 44 77 90 170 46 94 87
170 90 170 3 0 44 -76 90 -170 46 -93 87 -170 90 -170 3 0 44 77 90 170 46 93
87 170 90 170 3 0 44 -76 90 -170 46 -93 87 -170 90 -170 3 0 46 83 95 184
l90 183 43 7 c64 11 121 33 159 62 41 31 40 50 -12 161 -58 124 -152 202 -265
219 -25 4 -54 14 -65 24 -42 37 -140 69 -260 85 -28 3 -64 8 -80 10 -17 2
-104 7 -195 11 l-165 6 -69 70 c-190 192 -384 274 -675 283 -165 6 -262 20
-412 63 -143 41 -190 50 -304 57 -135 8 -184 13 -220 24 -127 39 -255 145
-329 273 -22 39 -41 51 -32 21z"/>
<path d="M4476 3548 c73 -108 130 -256 140 -367 l6 -64 -22 21 c-41 38 -153
83 -241 96 l-37 6 43 -65 c128 -196 87 -338 -114 -389 -82 -20 -116 -24 -213
-25 l-78 -1 0 -61 0 -60 158 2 c343 4 528 71 620 222 44 73 53 107 57 209 6
127 -24 216 -108 326 -44 58 -144 145 -206 180 l-40 23 35 -53z"/>
</g>
</svg>
